<?xml version="1.0" encoding="UTF-8" standalone="no"?>
<!-- Created with Inkscape (http://www.inkscape.org/) -->

<svg
   width="1123"
   height="1123"
   viewBox="0 0 297.1271 297.12707"
   version="1.1"
   id="svg1"
   xml:space="preserve"
   sodipodi:docname="RSGL.svg"
   inkscape:version="1.2.2 (b0a8486541, 2022-12-01)"
   inkscape:export-filename="drawing(2).png"
   inkscape:export-xdpi="96"
   inkscape:export-ydpi="96"
   xmlns:inkscape="http://www.inkscape.org/namespaces/inkscape"
   xmlns:sodipodi="http://sodipodi.sourceforge.net/DTD/sodipodi-0.dtd"
   xmlns:xlink="http://www.w3.org/1999/xlink"
   xmlns="http://www.w3.org/2000/svg"
   xmlns:svg="http://www.w3.org/2000/svg"><sodipodi:namedview
     id="namedview1"
     pagecolor="#505050"
     bordercolor="#eeeeee"
     borderopacity="1"
     inkscape:showpageshadow="0"
     inkscape:pageopacity="0"
     inkscape:pagecheckerboard="0"
     inkscape:deskcolor="#505050"
     inkscape:document-units="px"
     inkscape:zoom="0.52412698"
     inkscape:cx="602.90733"
     inkscape:cy="713.56754"
     inkscape:window-width="1434"
     inkscape:window-height="1080"
     inkscape:window-x="326"
     inkscape:window-y="0"
     inkscape:window-maximized="0"
     inkscape:current-layer="layer1"
     showgrid="false"
     inkscape:lockguides="true"
     showguides="false" /><defs
     id="defs1"><pattern
       inkscape:collect="always"
       xlink:href="#pattern6-7"
       preserveAspectRatio="xMidYMid"
       id="pattern8"
       patternTransform="translate(190,350)" /><pattern
       patternUnits="userSpaceOnUse"
       width="29"
       height="20"
       patternTransform="translate(190,350)"
       preserveAspectRatio="xMidYMid"
       style="fill:#000000"
       id="pattern6-7"
       inkscape:label=""
       inkscape:collect="always"
       inkscape:isstock="true"><path
         style="fill:none;stroke:#000000;stroke-width:10;stroke-linecap:butt;stroke-dasharray:none;paint-order:stroke markers fill;stop-color:#000000"
         d="M 0,5 C 19,5 10,15 29,15"
         id="path4-2"
         sodipodi:nodetypes="cc" /></pattern><linearGradient
       inkscape:collect="always"
       id="linearGradient35210"><stop
         style="stop-color:#ff6c6c;stop-opacity:1;"
         offset="0"
         id="stop35208" /><stop
         style="stop-color:#b60000;stop-opacity:1;"
         offset="1"
         id="stop35206" /></linearGradient><rect
       x="547.58386"
       y="567.39996"
       width="912.22601"
       height="372.89447"
       id="rect31785" /><linearGradient
       id="linearGradient2937"
       inkscape:swatch="solid"><stop
         style="stop-color:#000000;stop-opacity:1;"
         offset="0"
         id="stop2935" /></linearGradient><linearGradient
       inkscape:collect="always"
       xlink:href="#linearGradient35210"
       id="linearGradient35214"
       x1="907.6347"
       y1="625.78723"
       x2="910.10663"
       y2="808.20203"
       gradientUnits="userSpaceOnUse"
       spreadMethod="pad" /><rect
       x="547.58386"
       y="567.39996"
       width="912.22601"
       height="372.89447"
       id="rect31785-5" /></defs><g
     inkscape:label="Layer 1"
     inkscape:groupmode="layer"
     id="layer1"
     transform="translate(-108.61027,4.4714321)"><rect
       style="fill:#ffffff;fill-opacity:1;stroke:#000000;stroke-width:0.0935901;stroke-dasharray:none;stroke-opacity:1"
       id="rect26157"
       width="516.98511"
       height="294.59927"
       x="-4.4925561"
       y="-4.4246383"
       sodipodi:insensitive="true" /><rect
       style="fill:#f9eee3;fill-opacity:1;stroke:#88423b;stroke-width:1.23389;stroke-dasharray:none;stroke-opacity:0"
       id="rect50924"
       width="300.24722"
       height="306.45282"
       x="107.0502"
       y="-9.1342993" /><path
       sodipodi:type="star"
       style="fill:#010000;fill-opacity:0;stroke:#4e3e38;stroke-width:3.19286;stroke-dasharray:none;stroke-opacity:1"
       id="path290"
       inkscape:flatsided="true"
       sodipodi:sides="6"
       sodipodi:cx="161.98796"
       sodipodi:cy="43.127953"
       sodipodi:r1="142.3976"
       sodipodi:r2="123.31994"
       sodipodi:arg1="0.50781217"
       sodipodi:arg2="1.0314109"
       inkscape:rounded="0"
       inkscape:randomized="0"
       d="M 286.41647,112.37116 164.23584,185.50781 39.80733,116.2646 37.559449,-26.115252 159.74008,-99.251902 284.16859,-30.008697 Z"
       transform="matrix(0.89038176,0,0,0.8806087,112.94269,102.2693)"
       inkscape:transform-center-x="6.4937379"
       inkscape:transform-center-y="-10.356857" /><path
       sodipodi:type="star"
       style="fill:#000000;fill-opacity:0;stroke:#51423b;stroke-width:1.59657;stroke-dasharray:none;stroke-opacity:1"
       id="path290-3"
       inkscape:flatsided="true"
       sodipodi:sides="6"
       sodipodi:cx="161.98796"
       sodipodi:cy="43.127953"
       sodipodi:r1="142.3976"
       sodipodi:r2="123.31994"
       sodipodi:arg1="0.50781217"
       sodipodi:arg2="1.0314109"
       inkscape:rounded="0"
       inkscape:randomized="0"
       d="M 286.41647,112.37116 164.23584,185.50781 39.80733,116.2646 37.559449,-26.115252 159.74008,-99.251902 284.16859,-30.008697 Z"
       transform="matrix(-0.77439745,0.43451447,-0.43941374,-0.7657634,401.56789,102.88784)" /><g
       transform="matrix(0.03250047,0,0,-0.03165042,160.64622,205.57263)"
       id="g12"><path
         id="path14"
         style="fill:#211714;fill-opacity:1;fill-rule:nonzero;stroke:none"
         d="m 4211.79,2954.76 c -27.82,0 -50.36,-22.55 -50.36,-50.36 0,-27.82 22.54,-50.36 50.36,-50.36 27.81,0 50.36,22.54 50.36,50.36 0,27.81 -22.55,50.36 -50.36,50.36" /><path
         id="path16"
         style="fill:#211714;fill-opacity:1;fill-rule:nonzero;stroke:none"
         d="m 4333.99,2415.78 -349.52,-170.41 c -23.44,-11.43 -34.17,-38.97 -24.62,-63.25 l 121.08,-307.76 c 3.35,-8.49 8.95,-15.92 16.21,-21.45 l 71.91,-54.84 h -402.86 l -230.23,285.96 c -12.69,15.76 -33.64,22.3 -53.01,16.63 -5.99,-1.76 -606.02,-174.14 -1267.22,-61.27 -17.92,3.07 -36.28,-3.92 -47.62,-18.27 -11.34,-14.34 -13.95,-33.73 -6.81,-50.56 29.43,-69.3 61.61,-128.76 87.59,-172.49 h -432.63 c -85.48,177.24 -110.8,490.06 -115.07,551.79 24.96,4.89 51.62,8.83 80.3,11.39 87.07,7.75 203.12,0.55 325.99,-7.06 292.41,-18.13 656.37,-40.69 931.1,112.81 379.41,212.02 645.18,498.7 656.31,510.8 10.67,11.6 15.22,27.56 12.32,43.05 -2.89,15.49 -12.95,28.72 -27.09,35.68 -54.97,27.06 -136.84,85.09 -146.74,129.39 -1.74,7.75 -1.91,16.72 8.52,29.79 37.76,47.31 107.03,91.06 177.03,82.04 56.16,-7.23 103.05,-49.81 135.59,-123.15 7.81,-17.62 25.07,-29.18 44.34,-29.71 208.97,-5.75 371.58,27.3 440.73,44.47 27.47,-39.82 79.68,-114 137.48,-188.39 169.81,-218.55 225.6,-230.45 264.71,-224.48 0.6,0.1 1.2,0.2 1.8,0.31 19.15,3.67 36.16,6.85 51.21,9.63 -123.58,-156.07 -281.03,-283.01 -460.8,-370.65 z m -1083.94,-546.98 -52.77,70.6 c 134.11,20.48 232.93,43.88 281.3,56.44 l 87.97,-109.27 c -122.79,-42.17 -266.76,-25.5 -316.5,-17.77 z m -906.24,1.99 c -7.32,2.22 -14.95,2.7 -22.35,1.55 -9.32,16.42 -19.18,34.52 -29.25,54.23 105.19,-14.19 207.87,-21.84 306.17,-24.7 3.61,-11.07 8.48,-25.95 13.55,-41.46 -124.28,2.94 -243.75,7.11 -268.12,10.38 z m -767.22,691.69 c -7.42,17.05 -23.7,28.58 -42.25,29.91 -0.99,0.07 -4.87,0.32 -11.41,0.32 -34.54,0 -143.17,-6.78 -290.85,-81.29 66.78,104.34 179.4,231.07 259.03,309.61 15.77,15.56 19.44,39.65 8.99,59.18 -10.46,19.53 -32.46,29.9 -54.21,25.39 -1.9,-0.39 -154.7,-32.04 -304.61,-69.38 108.93,150.35 359.14,297.09 463.31,348.46 20.55,10.14 31.58,32.94 26.77,55.35 -4.81,22.39 -24.22,38.66 -47.11,39.47 -8.88,0.32 -169.39,5.49 -323.53,-22.12 228.07,269.58 518.7,306.49 521.87,306.87 23.34,2.59 41.72,21.08 44.19,44.44 2.46,23.35 -11.66,45.28 -33.95,52.69 -31.5,10.49 -104.95,38.58 -161.21,71.38 298.28,161.69 659.26,3.83 663.07,2.13 20.5,-9.23 44.6,-3.66 58.95,13.59 14.38,17.26 15.48,41.98 2.71,60.44 -10.75,15.54 -83.9,118.9 -173.57,187.3 318.25,87.21 618.02,-145.34 621.26,-147.91 19.34,-15.35 46.95,-14.31 65.06,2.44 18.11,16.76 21.29,44.22 7.49,64.67 -4.19,6.22 -79.84,117.64 -167.46,201.57 152.79,16.12 371.47,-35.74 719.52,-330.21 15.97,-13.53 38.68,-15.65 56.92,-5.35 18.22,10.31 28.08,30.87 24.73,51.54 -14.56,89.63 -63.57,191.43 -108.41,270.06 127.33,-62.94 351.61,-199.25 693.11,-490.71 12.68,-10.83 29.91,-14.63 45.97,-10.11 16.05,4.5 28.8,16.7 34,32.54 34.86,106.21 -30.08,260.12 -95.35,376.8 88.13,-57.73 196.13,-147.56 279.93,-277.53 139.2,-215.9 9.39,-399.17 -26.61,-443.04 -44.58,-11.92 -198.21,-48.16 -401.17,-46.67 -59.3,111.65 -140.37,144.94 -200.09,152.62 -95.47,12.28 -200.55,-34.38 -267.94,-118.85 -27.34,-34.26 -37,-73.72 -27.92,-114.12 15.78,-70.26 87.82,-128.66 141.39,-163.42 -89.85,-88.67 -309.33,-290.85 -587.41,-446.24 -249.09,-139.18 -596.76,-117.62 -876.13,-100.3 -126.73,7.86 -246.47,15.28 -341.04,6.86 -131.43,-11.71 -229.63,-48.58 -299.99,-88.33 27.64,45.9 62.32,95.48 97.06,138.63 11.66,14.49 14.31,34.26 6.89,51.32 z m 3373.19,316.01 c -8.72,16.17 -25.58,26.26 -43.95,26.28 -0.02,0 -0.03,0 -0.05,0 -16.06,0 -77.89,-10.1 -174.42,-28.49 -47.92,19.38 -191.45,197.69 -307.93,367.47 80.75,106.71 164.09,321.23 20.16,544.46 -187.74,291.19 -478.91,398.13 -491.21,402.54 -20.74,7.44 -43.89,0.43 -57.02,-17.26 -13.12,-17.68 -13.14,-41.87 -0.03,-59.57 67.57,-91.21 158.18,-244.72 183.23,-357.15 -551.68,456.45 -782.93,495.88 -792.93,497.39 -19.97,3.03 -39.67,-6.22 -50.16,-23.42 -10.48,-17.18 -9.63,-38.98 2.17,-55.3 1.01,-1.4 69.61,-96.97 121.18,-205.18 -302.36,225.16 -546.86,293.41 -779.18,221.17 -19.02,-5.92 -32.73,-22.56 -34.86,-42.37 -2.15,-19.81 7.67,-39 25,-48.84 17.03,-9.69 35.19,-23.57 53.59,-39.95 -155.44,59.44 -367.53,94.75 -582.29,-11.51 -18.79,-9.3 -29.79,-29.35 -27.53,-50.21 2.26,-20.85 17.3,-38.07 37.66,-43.13 33.62,-8.36 73.97,-38.14 112.31,-74.56 -167.09,37.83 -426.97,56.06 -649.81,-104.26 -11.92,-8.58 -19.47,-21.96 -20.64,-36.61 -1.17,-14.64 4.16,-29.06 14.58,-39.42 28.45,-28.32 70.45,-54 112.19,-75.15 -144.23,-50.9 -362.39,-166.88 -525.08,-426.24 -11.49,-18.3 -9.92,-41.91 3.89,-58.52 13.82,-16.62 36.74,-22.46 56.82,-14.56 65.7,25.94 150.38,39.55 226.85,46.6 -147.66,-94.04 -339.87,-242.45 -383.441,-399.43 -4.824,-17.36 0.066,-35.98 12.811,-48.72 12.73,-12.75 31.35,-17.65 48.72,-12.84 78.97,21.89 171.54,44.03 248.3,61.52 -97.69,-110.39 -223.33,-271.71 -231.98,-379.86 -1.54,-19.33 8.23,-37.82 25.09,-47.43 16.83,-9.6 37.73,-8.6 53.58,2.59 106.68,75.29 198.96,111.35 264.89,128.57 -56.33,-83.37 -117.25,-194.32 -101.76,-266.2 4.2,-19.52 19.62,-34.67 39.22,-38.52 3.22,-0.64 6.46,-0.95 9.66,-0.95 16.28,0 31.8,7.97 41.23,21.74 0.74,1.06 55.97,79.14 194.23,129.58 7.93,-102.95 39.83,-422.1 139.49,-599.2 8.86,-15.74 25.52,-25.48 43.58,-25.48 h 554.64 c 18.81,0 36.04,10.56 44.57,27.34 6.76,13.3 7.04,28.69 1.37,42.1 53.05,-2.97 141.8,-5.64 294.19,-8.61 0.33,0 0.66,-0.01 0.98,-0.01 15.96,0 30.98,7.62 40.4,20.55 9.62,13.18 12.19,30.23 6.89,45.66 -5.01,14.62 -15.71,47.15 -24.99,75.5 139.62,0.61 268.27,10.24 379.92,23.46 l 97.93,-131.03 c 7.29,-9.76 17.9,-16.52 29.83,-19.01 5.18,-1.08 74.64,-15.19 166.5,-15.19 76.21,0 167.85,9.71 250.97,44.62 1.07,0.45 1.98,1.12 3.02,1.64 l 71.15,-88.38 c 9.49,-11.79 23.81,-18.64 38.95,-18.64 h 574.82 c 21.45,0 40.51,13.68 47.37,34 6.87,20.31 0,42.75 -17.05,55.76 l -178.52,136.13 -99.05,251.77 307.99,150.17 c 231.42,112.82 428.43,286.22 569.74,501.43 10.08,15.35 10.93,34.99 2.22,51.16" /></g><text
       xml:space="preserve"
       transform="matrix(0.19286166,0,0,0.19074476,83.010716,38.359469)"
       id="text31783"
       style="font-style:normal;font-variant:normal;font-weight:bold;font-stretch:normal;font-size:266.667px;font-family:'AXIS Extra Bold';-inkscape-font-specification:'AXIS Extra Bold,  Bold';white-space:pre;shape-inside:url(#rect31785);display:inline;mix-blend-mode:normal;fill:url(#linearGradient35214);fill-opacity:1;fill-rule:nonzero;stroke:#000000;stroke-width:0.33903;stroke-dasharray:none;stroke-dashoffset:0;stroke-opacity:1;paint-order:stroke fill markers"><tspan
         x="547.58398"
         y="814.06736"
         id="tspan412">RSGL</tspan></text><text
       xml:space="preserve"
       style="font-style:normal;font-variant:normal;font-weight:normal;font-stretch:normal;font-size:12.4951px;font-family:sans-serif;-inkscape-font-specification:sans-serif;display:inline;fill:#000000;fill-opacity:1;stroke:#53253a;stroke-width:0.0796333;stroke-dasharray:none;stroke-opacity:1"
       x="258.58865"
       y="211.37105"
       id="text48832"
       transform="scale(1.0055337,0.99449675)"><tspan
         sodipodi:role="line"
         style="font-style:normal;font-variant:normal;font-weight:normal;font-stretch:normal;font-size:12.4951px;font-family:'Ink Free';-inkscape-font-specification:'Ink Free, Normal';font-variant-ligatures:normal;font-variant-caps:normal;font-variant-numeric:normal;font-variant-east-asian:normal;text-align:center;text-anchor:middle;fill:#000000;fill-opacity:1;stroke-width:0.0796333;stroke-dasharray:none"
         x="258.58865"
         y="211.37105"
         id="tspan411">Riley's Simple Graphics</tspan><tspan
         sodipodi:role="line"
         style="font-style:normal;font-variant:normal;font-weight:normal;font-stretch:normal;font-size:12.4951px;font-family:'Ink Free';-inkscape-font-specification:'Ink Free, Normal';font-variant-ligatures:normal;font-variant-caps:normal;font-variant-numeric:normal;font-variant-east-asian:normal;text-align:center;text-anchor:middle;fill:#000000;fill-opacity:1;stroke-width:0.0796333;stroke-dasharray:none"
         x="260.38171"
         y="227.17984"
         id="tspan415">Library </tspan></text></g></svg>
